<mxfile host="Electron" modified="2023-12-02T03:49:53.372Z" agent="Mozilla/5.0 (X11; Linux x86_64) AppleWebKit/537.36 (KHTML, like Gecko) draw.io/22.1.2 Chrome/114.0.5735.289 Electron/25.9.4 Safari/537.36" etag="Fl9sdSRtrl9SWVdUecmD" version="22.1.2" type="device">
  <diagram name="Página-1" id="KZukB_m-YUqimC4Bnq4d">
    <mxGraphModel dx="1114" dy="849" grid="1" gridSize="10" guides="1" tooltips="1" connect="1" arrows="1" fold="1" page="1" pageScale="1" pageWidth="827" pageHeight="1169" math="0" shadow="0">
      <root>
        <mxCell id="0" />
        <mxCell id="1" parent="0" />
        <mxCell id="bDbDI8i-y2grDqHVsbpE-87" value="Proposta de partição&#xa; do Hive" style="swimlane;startSize=20;horizontal=1;childLayout=treeLayout;horizontalTree=0;resizable=0;containerType=tree;fontSize=12;" vertex="1" parent="1">
          <mxGeometry x="100" y="220" width="140" height="550" as="geometry" />
        </mxCell>
        <mxCell id="bDbDI8i-y2grDqHVsbpE-88" value="Root" style="whiteSpace=wrap;html=1;" vertex="1" parent="bDbDI8i-y2grDqHVsbpE-87">
          <mxGeometry x="20" y="40" width="100" height="40" as="geometry" />
        </mxCell>
        <mxCell id="bDbDI8i-y2grDqHVsbpE-91" value="Mês" style="whiteSpace=wrap;html=1;" vertex="1" parent="bDbDI8i-y2grDqHVsbpE-87">
          <mxGeometry x="20" y="130" width="100" height="40" as="geometry" />
        </mxCell>
        <mxCell id="bDbDI8i-y2grDqHVsbpE-92" value="" style="edgeStyle=elbowEdgeStyle;elbow=vertical;html=1;rounded=1;curved=0;sourcePerimeterSpacing=0;targetPerimeterSpacing=0;startSize=6;endSize=6;" edge="1" parent="bDbDI8i-y2grDqHVsbpE-87" source="bDbDI8i-y2grDqHVsbpE-88" target="bDbDI8i-y2grDqHVsbpE-91">
          <mxGeometry relative="1" as="geometry" />
        </mxCell>
        <mxCell id="bDbDI8i-y2grDqHVsbpE-97" value="" style="edgeStyle=elbowEdgeStyle;elbow=vertical;html=1;rounded=1;curved=0;sourcePerimeterSpacing=0;targetPerimeterSpacing=0;startSize=6;endSize=6;" edge="1" target="bDbDI8i-y2grDqHVsbpE-98" source="bDbDI8i-y2grDqHVsbpE-91" parent="bDbDI8i-y2grDqHVsbpE-87">
          <mxGeometry relative="1" as="geometry">
            <mxPoint x="144" y="540" as="sourcePoint" />
          </mxGeometry>
        </mxCell>
        <mxCell id="bDbDI8i-y2grDqHVsbpE-98" value="uf&amp;nbsp;" style="whiteSpace=wrap;html=1;" vertex="1" parent="bDbDI8i-y2grDqHVsbpE-87">
          <mxGeometry x="20" y="220" width="100" height="40" as="geometry" />
        </mxCell>
        <mxCell id="bDbDI8i-y2grDqHVsbpE-105" value="" style="edgeStyle=elbowEdgeStyle;elbow=vertical;html=1;rounded=1;curved=0;sourcePerimeterSpacing=0;targetPerimeterSpacing=0;startSize=6;endSize=6;" edge="1" target="bDbDI8i-y2grDqHVsbpE-106" source="bDbDI8i-y2grDqHVsbpE-98" parent="bDbDI8i-y2grDqHVsbpE-87">
          <mxGeometry relative="1" as="geometry">
            <mxPoint x="410" y="630" as="sourcePoint" />
          </mxGeometry>
        </mxCell>
        <mxCell id="bDbDI8i-y2grDqHVsbpE-106" value="Aeroporto&amp;nbsp;" style="whiteSpace=wrap;html=1;" vertex="1" parent="bDbDI8i-y2grDqHVsbpE-87">
          <mxGeometry x="20" y="310" width="100" height="40" as="geometry" />
        </mxCell>
        <mxCell id="bDbDI8i-y2grDqHVsbpE-109" value="" style="edgeStyle=elbowEdgeStyle;elbow=vertical;html=1;rounded=1;curved=0;sourcePerimeterSpacing=0;targetPerimeterSpacing=0;startSize=6;endSize=6;" edge="1" target="bDbDI8i-y2grDqHVsbpE-110" source="bDbDI8i-y2grDqHVsbpE-106" parent="bDbDI8i-y2grDqHVsbpE-87">
          <mxGeometry relative="1" as="geometry">
            <mxPoint x="410" y="720" as="sourcePoint" />
          </mxGeometry>
        </mxCell>
        <mxCell id="bDbDI8i-y2grDqHVsbpE-110" value="compania" style="whiteSpace=wrap;html=1;" vertex="1" parent="bDbDI8i-y2grDqHVsbpE-87">
          <mxGeometry x="20" y="400" width="100" height="40" as="geometry" />
        </mxCell>
        <mxCell id="bDbDI8i-y2grDqHVsbpE-120" value="" style="edgeStyle=elbowEdgeStyle;elbow=vertical;html=1;rounded=1;curved=0;sourcePerimeterSpacing=0;targetPerimeterSpacing=0;startSize=6;endSize=6;" edge="1" target="bDbDI8i-y2grDqHVsbpE-121" source="bDbDI8i-y2grDqHVsbpE-110" parent="bDbDI8i-y2grDqHVsbpE-87">
          <mxGeometry relative="1" as="geometry">
            <mxPoint x="170" y="570" as="sourcePoint" />
          </mxGeometry>
        </mxCell>
        <mxCell id="bDbDI8i-y2grDqHVsbpE-121" value="compania" style="whiteSpace=wrap;html=1;" vertex="1" parent="bDbDI8i-y2grDqHVsbpE-87">
          <mxGeometry x="20" y="490" width="100" height="40" as="geometry" />
        </mxCell>
        <mxCell id="bDbDI8i-y2grDqHVsbpE-111" value="Horizontal Tree Layout" style="swimlane;startSize=20;horizontal=0;childLayout=treeLayout;horizontalTree=1;resizable=0;containerType=tree;fontSize=12;" vertex="1" parent="1">
          <mxGeometry x="370" y="360" width="310" height="160" as="geometry" />
        </mxCell>
        <mxCell id="bDbDI8i-y2grDqHVsbpE-112" value="Root" style="whiteSpace=wrap;html=1;" vertex="1" parent="bDbDI8i-y2grDqHVsbpE-111">
          <mxGeometry x="40" y="60" width="100" height="40" as="geometry" />
        </mxCell>
        <mxCell id="bDbDI8i-y2grDqHVsbpE-113" value="Child 1" style="whiteSpace=wrap;html=1;" vertex="1" parent="bDbDI8i-y2grDqHVsbpE-111">
          <mxGeometry x="190" y="20" width="100" height="40" as="geometry" />
        </mxCell>
        <mxCell id="bDbDI8i-y2grDqHVsbpE-114" value="" style="edgeStyle=elbowEdgeStyle;elbow=vertical;html=1;rounded=1;curved=0;sourcePerimeterSpacing=0;targetPerimeterSpacing=0;startSize=6;endSize=6;" edge="1" parent="bDbDI8i-y2grDqHVsbpE-111" source="bDbDI8i-y2grDqHVsbpE-112" target="bDbDI8i-y2grDqHVsbpE-113">
          <mxGeometry relative="1" as="geometry" />
        </mxCell>
        <mxCell id="bDbDI8i-y2grDqHVsbpE-115" value="Child 2" style="whiteSpace=wrap;html=1;" vertex="1" parent="bDbDI8i-y2grDqHVsbpE-111">
          <mxGeometry x="190" y="100" width="100" height="40" as="geometry" />
        </mxCell>
        <mxCell id="bDbDI8i-y2grDqHVsbpE-116" value="" style="edgeStyle=elbowEdgeStyle;elbow=vertical;html=1;rounded=1;curved=0;sourcePerimeterSpacing=0;targetPerimeterSpacing=0;startSize=6;endSize=6;" edge="1" parent="bDbDI8i-y2grDqHVsbpE-111" source="bDbDI8i-y2grDqHVsbpE-112" target="bDbDI8i-y2grDqHVsbpE-115">
          <mxGeometry relative="1" as="geometry" />
        </mxCell>
      </root>
    </mxGraphModel>
  </diagram>
</mxfile>
